<svg xmlns="http://www.w3.org/2000/svg" viewBox="0 0 200 200" role="img" aria-label="Compass rose">
  <defs>
    <linearGradient id="brassG" x1="0" y1="0" x2="1" y2="1">
      <stop offset="0" stop-color="#e8d6a1"></stop>
      <stop offset="0.5" stop-color="#b08a3e"></stop>
      <stop offset="1" stop-color="#8c6c2c"></stop>
    </linearGradient>
  </defs>
  <circle cx="100" cy="100" r="92" fill="none" stroke="#b08a3e" stroke-width="1"></circle>
  <circle cx="100" cy="100" r="78" fill="none" stroke="#b08a3e" stroke-width="0.6"></circle>
  
  <g stroke="#0a2240" stroke-width="1">
    <g id="ticks">
      
    </g>
  </g>
  <g fill="#0a2240" font-family="&#39;Cormorant Garamond&#39;, serif" font-size="14" font-weight="600" text-anchor="middle">
    <text x="100" y="22">N</text>
    <text x="184" y="105">E</text>
    <text x="100" y="190">S</text>
    <text x="16" y="105">W</text>
  </g>
  
  <g>
    <polygon points="100,100 96,30 100,18 104,30" fill="url(#brassG)" stroke="#3a2614" stroke-width="0.5"></polygon>
    <polygon points="100,100 104,30 100,18 100,100" fill="#0a2240"></polygon>
    <polygon points="100,100 104,170 100,182 96,170" fill="url(#brassG)" stroke="#3a2614" stroke-width="0.5"></polygon>
    <polygon points="100,100 96,170 100,182 100,100" fill="#0a2240"></polygon>
    <polygon points="100,100 170,96 182,100 170,104" fill="url(#brassG)" stroke="#3a2614" stroke-width="0.5"></polygon>
    <polygon points="100,100 170,96 182,100 100,100" fill="#0a2240"></polygon>
    <polygon points="100,100 30,104 18,100 30,96" fill="url(#brassG)" stroke="#3a2614" stroke-width="0.5"></polygon>
    <polygon points="100,100 30,96 18,100 100,100" fill="#0a2240"></polygon>
    
    <g opacity="0.85">
      <polygon points="100,100 145,50 152,48 150,55" fill="#b08a3e"></polygon>
      <polygon points="100,100 150,55 152,48 100,100" fill="#0a2240"></polygon>
      <polygon points="100,100 55,150 48,152 50,145" fill="#b08a3e"></polygon>
      <polygon points="100,100 50,145 48,152 100,100" fill="#0a2240"></polygon>
      <polygon points="100,100 145,150 152,152 150,145" fill="#b08a3e"></polygon>
      <polygon points="100,100 150,145 152,152 100,100" fill="#0a2240"></polygon>
      <polygon points="100,100 55,50 48,48 50,55" fill="#b08a3e"></polygon>
      <polygon points="100,100 50,55 48,48 100,100" fill="#0a2240"></polygon>
    </g>
  </g>
  <circle cx="100" cy="100" r="6" fill="#b08a3e" stroke="#0a2240" stroke-width="1"></circle>
</svg>